<?xml version="1.0" standalone="no"?>
<!DOCTYPE svg PUBLIC "-//W3C//DTD SVG 20010904//EN"
 "http://www.w3.org/TR/2001/REC-SVG-20010904/DTD/svg10.dtd">
<svg version="1.0" xmlns="http://www.w3.org/2000/svg"
 width="1280.000000pt" height="2987.000000pt" viewBox="0 0 1280.000000 2987.000000"
 preserveAspectRatio="xMidYMid meet">
<metadata>
Created by potrace 1.16, written by Peter Selinger 2001-2019
</metadata>
<g transform="translate(0.000000,2987.000000) scale(0.100000,-0.100000)"
fill="#000000" stroke="none">
<path d="M5919 23188 c-2418 -3225 -4435 -5919 -4482 -5988 -407 -599 -659
-1318 -716 -2049 -14 -173 -14 -509 0 -682 57 -728 300 -1425 711 -2042 33
-51 2047 -2741 4476 -5979 l4414 -5888 38 28 c20 15 533 398 1138 852 759 568
1101 830 1098 841 -2 8 -1975 2645 -4386 5859 -2411 3214 -4402 5873 -4425
5909 -93 144 -158 305 -197 484 -31 147 -31 408 1 557 36 170 107 342 196 480
23 36 2014 2695 4424 5909 2410 3213 4385 5849 4387 5856 4 9 -380 303 -1129
864 -623 468 -1138 851 -1143 851 -5 0 -1988 -2638 -4405 -5862z"/>
</g>
</svg>
